<!--?xml version="1.0" encoding="utf-8"?-->
<!-- Generator: Adobe Illustrator 19.1.1, SVG Export Plug-In . SVG Version: 6.00 Build 0)  -->
<svg version="1.1" id="_x31_0" xmlns="http://www.w3.org/2000/svg" xmlns:xlink="http://www.w3.org/1999/xlink" x="0px" y="0px" viewBox="0 0 512 512" style="width: 64px; height: 64px; opacity: 1;" xml:space="preserve">
<style type="text/css">
	.st0{fill:#374149;}
</style>
<g>
	<path class="st0" d="M435.406,357.879l16.004-11.102l1.512-1.082l25.445-25.449l-39.789-39.789l-4.965,4.961l-3.191,3.05
		l-1.793-25.89l16.293-11.39l1.442-1.008l25.445-25.45l-39.789-39.789l-5.156,5.153l-3.29,3.148l-2.082-29.785l26.098-26.094
		C505.042,79.91,525.73,31.973,502.878,9.122C480.027-13.73,432.09,6.958,374.636,64.41l-26.098,26.094l-18.14-1.304l-11.75-0.954
		l8.34-8.336l-39.722-39.718l-25.95,25.949l-11.894,17.23l-15.832-1.14l-10.168-0.832l8.051-8.051l-39.794-39.789L165.73,59.653
		L154.05,76.52l-35.934-2.527l-23.371-1.75l4.231-4.226L87.656,56.7L73.602,70.754l-47.289-3.461L12.832,80.485
		C3.317,89.856,0.074,92.958,0,101.246v8.074l5.695,5.695c3.606,3.606,4.614,3.894,16.293,7.207l21.047,6.054L102,144.954
		l28.414,8.113l-3.324,3.329l11.317,11.316l9.73-9.73l11.578,3.336l5.375,1.625l-4.07,4.07l-0.008,0.008l0,0l-0.113,0.113
		l11.156,11.157l0.047,0.05l0,0l0.113,0.114l10.598-10.598l13.626,3.82l36.847,22.25l8.254,5.027
		c-18.309,19.172-44.031,46.77-69.395,75.301c-12.113,13.699-23.359,26.675-33.304,38.64c-9.301-0.793-20.618-1.73-31.863-2.738
		l-61.852-5.047l-33.679,33.683l-9.856,9.79l0.043,0.023l-0.117,0.118l75.976,41.218l2.809,1.531
		c-10.664,18.019-12.324,26.453-13.187,30.633l-1.227,6.274L34.89,459.375l-0.406,17.027l-0.031,0.977h0.008l-0.004,0.164
		l18.094-0.508l30.926-30.926l6.343-1.297c4.086-0.786,12.398-2.379,30.363-13.035c0.098-0.055,0.176-0.098,0.274-0.153
		l33.282,61.34l9.351,17.336l0.035-0.035l0.082,0.149l43.609-43.614l-0.718-8.797c0,0-6.199-75.547-6.992-84.844
		c11.675-9.804,24.652-21.05,38.566-33.378c26.773-23.672,52.511-47.699,71.488-65.645c1.336-1.254,2.574-2.398,3.93-3.672
		l27.16,45.024l3.894,13.699l-10.598,10.594l11.317,11.32l2.953-2.953l1.394-1.293c1.438,5.312,3.086,10.976,4.738,16.934
		l-9.602,9.598l-0.019,0.019l0,0l-0.114,0.114l11.18,11.179l0.023,0.023l0,0l0.114,0.118l2.363-2.363l1.046-0.954
		c2.426,8.199,30.762,108.418,30.762,108.418c3.387,11.75,3.676,12.758,7.282,16.363l5.691,5.695l8.004-0.074
		c8.219,0,11.39-3.172,20.906-12.832l13.117-13.406l-3.461-47.289L455.3,424.34l-11.316-11.317l-2.629,2.626l-1.633,1.5
		L435.406,357.879z M167.867,478.438l-33.066-60.871c3.461-2.309,7.21-4.902,11.102-7.785l18.023,46.996l1.805-0.649l1.726-0.574
		l-16.218-49.667c7.246-5.298,15.371-11.578,24.347-18.727c1.649-1.277,3.254-2.523,5-3.878c2.668,31.355,6.266,76.238,6.266,76.238
		l-14.824,14.821L167.867,478.438z M97.218,421.934l6.661-8.621c0,0,3.098-2.379,7.855-6.274c0.722-0.578,1.511-1.222,2.234-1.946
		c1.152-0.863,2.378-1.945,3.75-3.027c0.794-0.648,1.657-1.371,2.524-2.09c1.152-1.012,2.234-1.95,3.386-2.957l0.07,0.07l0.148-0.14
		c4.035-3.606,8.504-7.5,12.758-11.461c1.082-0.938,2.019-1.875,3.027-2.742c1.801-1.657,3.531-3.387,5.117-4.973
		c1.227-1.226,2.454-2.453,3.535-3.676l0.07-0.074c1.082-1.082,2.09-2.234,3.102-3.242l0.07-0.074
		c6.199-6.774,11.965-13.695,16.004-19.461c4.394-5.985,6.918-10.672,6.414-12.473c-0.07-0.215-0.07-0.359-0.214-0.504
		c-0.145-0.145-0.359-0.218-0.504-0.218c-1.875-0.43-6.562,2.094-12.543,6.343c-5.695,4.11-12.687,9.805-19.394,16.078
		c0,0-0.07,0.07-0.145,0c-1.007,1.008-2.09,2.09-3.242,3.098l-3.676,3.676c-1.586,1.586-3.316,3.316-4.973,5.121
		c-0.938,0.938-1.875,1.875-2.812,2.954c-3.965,4.254-7.86,8.722-11.462,12.906l-0.074,0.07c-1.008,1.153-1.875,2.309-2.883,3.461
		c-0.722,0.864-1.442,1.73-2.09,2.524c-1.153,1.297-2.164,2.594-3.102,3.675c-0.649,0.794-1.297,1.586-1.946,2.234
		c-3.89,4.758-6.274,7.86-6.274,7.86l-4.691,3.691l-3.965,2.953c2.297-5.262,5.481-11.004,9.454-17.386
		c1.152-2.02,2.449-4.039,3.746-6.054c0.145-0.145,0.215-0.219,0.29-0.434c1.37-2.09,2.812-4.254,4.254-6.418
		c0.214-0.214,0.43-0.574,0.648-0.789c2.594-3.894,5.551-7.859,8.508-11.969c0.719-1.008,1.442-2.02,2.234-2.954
		c0.719-1.011,1.442-2.019,2.234-2.957c7.786-10.378,16.508-21.41,25.879-32.801c1.871-2.305,3.89-4.613,5.836-6.992
		c1.949-2.379,4.038-4.758,5.984-7.137c33.809-39.863,72.879-81.961,102.293-112.672c1.801-1.945,3.676-3.82,5.406-5.695
		c1.875-1.874,3.676-3.82,5.406-5.55c13.695-14.274,24.367-25.086,29.988-30.707l86.145-86.145
		c43.359-43.359,78.242-61.195,94.434-58.359c0.374,0.066,0.793,0.078,1.148,0.168c0.886,0.223,1.672,0.551,2.43,0.906
		c0.566,0.27,1.066,0.602,1.558,0.95c0.485,0.336,1.012,0.633,1.422,1.042c11.246,11.246-4.758,50.317-55.363,100.926
		l-86.145,86.141c-5.621,5.625-16.434,16.293-30.633,30.062c-1.805,1.657-3.679,3.531-5.625,5.332
		c-1.801,1.805-3.75,3.606-5.621,5.481c-30.786,29.34-72.809,68.34-112.676,102.148c-2.375,2.09-4.828,4.11-7.207,6.055
		c-2.309,2.019-4.683,3.965-6.992,5.835c-11.316,9.446-22.348,18.168-32.726,25.954c-1.012,0.722-1.95,1.515-2.957,2.234
		c-1.008,0.722-2.02,1.442-3.028,2.164c-4.035,3.027-8.074,5.91-11.894,8.578c-0.289,0.144-0.578,0.43-0.863,0.574
		c-2.164,1.442-4.324,2.887-6.344,4.184c-0.218,0.214-0.289,0.289-0.503,0.359c-2.02,1.297-4.039,2.594-5.985,3.82
		c-4.652,2.895-8.89,5.196-12.922,7.227C100.246,420.539,98.699,421.34,97.218,421.934z M33.55,344.074l18.93-18.926
		c0,0,33.179,2.609,62.464,5.082c4.75,0.43,9.41,0.856,13.805,1.274c-8.906,10.922-16.382,20.699-22.71,29.184l-49.594-16.149
		l-0.649,1.66L55.148,348l37.79,14.492l9.187,3.563c-2.805,3.953-5.465,7.617-7.762,11.07l-47.676-25.87L33.55,344.074z
		 M335.758,109.059l-14.973,14.969l-45.774-5.122l-2.234-0.214l-88.378-9.805l-11.606-1.222L55.363,94.758l-3.641,3.641
		l-2.019,1.898l0.098,0.023l-0.133,0.133l157.082,34.55l84.41,18.649c-7.426,7.43-18.782,18.93-32.367,33.09l-54.57-32.942
		c0,0-184.687-52.195-184.902-52.41c-0.214-0.215,14.199-14.199,14.199-14.199l128.027,9.226l9.301,0.649l18.164,1.297l9.661,0.722
		l58.679,4.18l9.297,0.648l17.446,1.297l9.66,0.722l25.481,1.833L335.758,109.059z M265.55,88.555l8.454-12.176l13.262-13.266
		l16.797,16.797l-10.738,10.738l-18.566-1.344L265.55,88.555z M170.25,81.637l8.309-11.89l13.191-13.191l16.797,16.793
		l-10.453,10.453l-18.539-1.386L170.25,81.637z M358.418,220.766l34.461,156.691l18.551,84.758l0.074-0.07l0.039,0.187l5.695-5.695
		l-12.976-117.504l-1.223-11.606l-9.805-88.378l-0.214-2.234l-5.047-45.703l9.172-9.172l5.902-5.758l3.02,41.965l0.648,9.586
		l1.297,17.446l0.649,9.297l4.254,58.754l0.722,9.661l1.297,18.164l0.649,9.301l9.226,128.023c0,0-14.058,14.347-14.199,14.203
		c-0.218-0.219-52.48-184.977-52.48-184.977l-32.946-54.57C339.386,239.512,350.992,228.192,358.418,220.766z M423.289,246.34
		l-1.942-27.664l10.742-10.742l16.722,16.727l-13.262,13.266l-8.18,5.675L423.289,246.34z M430.206,341.637l-2.011-27.734
		l10.453-10.453l16.797,16.797l-13.191,13.191l-8.043,5.539L430.206,341.637z" style="fill: rgb(0, 0, 0);"></path>
	<path class="st0" d="M441.851,48.45h0.019l0.004,0.16l1.16-0.175c0.137-0.02,13.278-1.958,17.875,2.64
		c4.578,4.574,2.641,17.719,2.621,17.852l-0.136,0.882l-0.039,0.118l0.023,0.004l-0.023,0.16l7.285,0.102l0.282-0.574
		c4.378-8.746,5.152-22.019-0.691-27.863c-5.848-5.851-19.141-5.09-27.883-0.711l-0.578,0.282l0.09,6.278L441.851,48.45z" style="fill: rgb(0, 0, 0);"></path>
</g>
</svg>
